# xmcd CD database file
#
# Track frame offsets:
#	150
#	21300
#	52875
#	77625
#	97425
#	132150
#	153375
#	172304
#	195479
#	215654
#
# Disc length: 3121 seconds
#
# Revision: 0
# Processed by: cddbd v1.5.2PL0 Copyright (c) Steve Scherf et al.
# Submitted via: CDex 1.70beta2
#
DISCID=8d0c2f0a
DTITLE=Ken 木村 - Far Out!
DYEAR=2006
DGENRE=Jazz
TTITLE0=Village
TTITLE1=Sunny Day
TTITLE2=JFK
TTITLE3=Far Out!
TTITLE4=If You Could See Me Now
TTITLE5=A Night In Tunisia
TTITLE6=Autumn
TTITLE7=Riverside Park
TTITLE8=Feel Blue
TTITLE9=In A Sentimental Mood
EXTD=YEAR: 2006
EXTT0=
EXTT1=
EXTT2=
EXTT3=
EXTT4=
EXTT5=
EXTT6=
EXTT7=
EXTT8=
EXTT9=
PLAYORDER=
